<?xml version="1.0" encoding="UTF-8"?>
<svg xmlns="http://www.w3.org/2000/svg" width="293" height="58" viewBox="0 0 293 58" fill="none">
  <g clip-path="url(#clip0_17_1884)">
    <path d="M100.816 3.9H103.192L106.792 12.972L110.428 3.9H112.84L108.376 14.808L113.272 26.364L122.524 3.72H125.26L114.424 29.28H112.192L106.828 16.644L101.428 29.28H99.232L88.432 3.72H91.132L100.42 26.364L105.28 14.808L100.816 3.9Z" fill="white"></path>
    <path d="M128.856 29.28V3.72H131.376V29.28H128.856Z" fill="white"></path>
    <path d="M152.726 8.508C152.366 8.1 151.946 7.74 151.466 7.428C150.986 7.092 150.446 6.804 149.846 6.564C149.246 6.324 148.598 6.132 147.902 5.988C147.23 5.844 146.51 5.772 145.742 5.772C143.51 5.772 141.866 6.204 140.81 7.068C139.778 7.908 139.262 9.06 139.262 10.524C139.262 11.532 139.502 12.324 139.982 12.9C140.486 13.476 141.266 13.944 142.322 14.304C143.378 14.664 144.722 15.036 146.354 15.42C148.178 15.804 149.75 16.26 151.07 16.788C152.39 17.316 153.41 18.036 154.13 18.948C154.85 19.836 155.21 21.048 155.21 22.584C155.21 23.76 154.982 24.78 154.526 25.644C154.07 26.508 153.434 27.228 152.618 27.804C151.802 28.38 150.83 28.812 149.702 29.1C148.574 29.364 147.338 29.496 145.994 29.496C144.674 29.496 143.402 29.364 142.178 29.1C140.978 28.812 139.838 28.404 138.758 27.876C137.678 27.324 136.67 26.628 135.734 25.788L136.994 23.736C137.45 24.216 137.99 24.672 138.614 25.104C139.262 25.512 139.97 25.884 140.738 26.22C141.53 26.556 142.37 26.82 143.258 27.012C144.17 27.18 145.106 27.264 146.066 27.264C148.106 27.264 149.69 26.892 150.818 26.148C151.97 25.404 152.546 24.3 152.546 22.836C152.546 21.78 152.258 20.94 151.682 20.316C151.106 19.668 150.242 19.14 149.09 18.732C147.938 18.324 146.522 17.928 144.842 17.544C143.066 17.136 141.566 16.68 140.342 16.176C139.118 15.672 138.194 15.012 137.57 14.196C136.97 13.356 136.67 12.252 136.67 10.884C136.67 9.3 137.054 7.968 137.822 6.888C138.614 5.784 139.694 4.956 141.062 4.404C142.43 3.828 144.002 3.54 145.778 3.54C146.906 3.54 147.95 3.66 148.91 3.9C149.894 4.116 150.794 4.44 151.61 4.872C152.45 5.304 153.23 5.844 153.95 6.492L152.726 8.508Z" fill="white"></path>
    <path d="M167.137 16.32C167.137 14.76 167.401 13.236 167.929 11.748C168.481 10.236 169.273 8.868 170.305 7.644C171.337 6.396 172.609 5.412 174.121 4.692C175.633 3.948 177.349 3.576 179.269 3.576C181.549 3.576 183.493 4.104 185.101 5.16C186.733 6.192 187.933 7.524 188.701 9.156L186.721 10.38C186.169 9.252 185.473 8.364 184.633 7.716C183.793 7.044 182.893 6.564 181.933 6.276C180.997 5.988 180.061 5.844 179.125 5.844C177.589 5.844 176.233 6.156 175.057 6.78C173.881 7.38 172.885 8.196 172.069 9.228C171.277 10.236 170.677 11.376 170.269 12.648C169.861 13.896 169.657 15.168 169.657 16.464C169.657 17.88 169.897 19.236 170.377 20.532C170.857 21.828 171.529 22.98 172.393 23.988C173.257 24.972 174.265 25.764 175.417 26.364C176.593 26.94 177.865 27.228 179.233 27.228C180.193 27.228 181.177 27.06 182.185 26.724C183.193 26.388 184.129 25.872 184.993 25.176C185.881 24.48 186.589 23.58 187.117 22.476L189.205 23.556C188.677 24.828 187.861 25.908 186.757 26.796C185.653 27.684 184.417 28.356 183.049 28.812C181.705 29.268 180.385 29.496 179.089 29.496C177.337 29.496 175.729 29.124 174.265 28.38C172.801 27.612 171.529 26.604 170.449 25.356C169.393 24.084 168.577 22.668 168.001 21.108C167.425 19.524 167.137 17.928 167.137 16.32Z" fill="white"></path>
    <path d="M191.493 23.88C191.493 22.704 191.829 21.696 192.501 20.856C193.173 19.992 194.097 19.332 195.273 18.876C196.473 18.396 197.853 18.156 199.413 18.156C200.325 18.156 201.273 18.228 202.257 18.372C203.241 18.516 204.117 18.732 204.885 19.02V17.436C204.885 15.852 204.417 14.592 203.481 13.656C202.545 12.72 201.249 12.252 199.593 12.252C198.585 12.252 197.589 12.444 196.605 12.828C195.645 13.188 194.637 13.728 193.581 14.448L192.645 12.72C193.869 11.88 195.069 11.256 196.245 10.848C197.421 10.416 198.621 10.2 199.845 10.2C202.149 10.2 203.973 10.86 205.317 12.18C206.661 13.5 207.333 15.324 207.333 17.652V26.328C207.333 26.664 207.405 26.916 207.549 27.084C207.693 27.228 207.921 27.312 208.233 27.336V29.28C207.969 29.304 207.741 29.328 207.549 29.352C207.357 29.376 207.213 29.376 207.117 29.352C206.517 29.328 206.061 29.136 205.749 28.776C205.437 28.416 205.269 28.032 205.245 27.624L205.209 26.256C204.369 27.336 203.277 28.176 201.933 28.776C200.589 29.352 199.221 29.64 197.829 29.64C196.629 29.64 195.537 29.388 194.553 28.884C193.593 28.356 192.837 27.66 192.285 26.796C191.757 25.908 191.493 24.936 191.493 23.88ZM204.057 25.32C204.321 24.984 204.525 24.66 204.669 24.348C204.813 24.036 204.885 23.76 204.885 23.52V20.784C204.069 20.472 203.217 20.232 202.329 20.064C201.465 19.896 200.589 19.812 199.701 19.812C197.949 19.812 196.533 20.16 195.453 20.856C194.373 21.552 193.833 22.5 193.833 23.7C193.833 24.396 194.013 25.056 194.373 25.68C194.733 26.28 195.261 26.784 195.957 27.192C196.653 27.576 197.469 27.768 198.405 27.768C199.581 27.768 200.673 27.54 201.681 27.084C202.713 26.628 203.505 26.04 204.057 25.32Z" fill="white"></path>
    <path d="M228.39 29.28H225.942V18.804C225.942 16.596 225.618 14.988 224.97 13.98C224.322 12.948 223.302 12.432 221.91 12.432C220.95 12.432 220.002 12.672 219.066 13.152C218.13 13.608 217.302 14.244 216.582 15.06C215.886 15.852 215.382 16.764 215.07 17.796V29.28H212.622V10.524H214.854V14.772C215.358 13.86 216.018 13.068 216.834 12.396C217.65 11.7 218.574 11.16 219.606 10.776C220.638 10.392 221.706 10.2 222.81 10.2C223.842 10.2 224.718 10.392 225.438 10.776C226.158 11.16 226.734 11.712 227.166 12.432C227.598 13.128 227.91 13.98 228.102 14.988C228.294 15.972 228.39 17.076 228.39 18.3V29.28Z" fill="white"></path>
    <path d="M232.098 23.88C232.098 22.704 232.434 21.696 233.106 20.856C233.778 19.992 234.702 19.332 235.878 18.876C237.078 18.396 238.458 18.156 240.018 18.156C240.93 18.156 241.878 18.228 242.862 18.372C243.846 18.516 244.722 18.732 245.49 19.02V17.436C245.49 15.852 245.022 14.592 244.086 13.656C243.15 12.72 241.854 12.252 240.198 12.252C239.19 12.252 238.194 12.444 237.21 12.828C236.25 13.188 235.242 13.728 234.186 14.448L233.25 12.72C234.474 11.88 235.674 11.256 236.85 10.848C238.026 10.416 239.226 10.2 240.45 10.2C242.754 10.2 244.578 10.86 245.922 12.18C247.266 13.5 247.938 15.324 247.938 17.652V26.328C247.938 26.664 248.01 26.916 248.154 27.084C248.298 27.228 248.526 27.312 248.838 27.336V29.28C248.574 29.304 248.346 29.328 248.154 29.352C247.962 29.376 247.818 29.376 247.722 29.352C247.122 29.328 246.666 29.136 246.354 28.776C246.042 28.416 245.874 28.032 245.85 27.624L245.814 26.256C244.974 27.336 243.882 28.176 242.538 28.776C241.194 29.352 239.826 29.64 238.434 29.64C237.234 29.64 236.142 29.388 235.158 28.884C234.198 28.356 233.442 27.66 232.89 26.796C232.362 25.908 232.098 24.936 232.098 23.88ZM244.662 25.32C244.926 24.984 245.13 24.66 245.274 24.348C245.418 24.036 245.49 23.76 245.49 23.52V20.784C244.674 20.472 243.822 20.232 242.934 20.064C242.07 19.896 241.194 19.812 240.306 19.812C238.554 19.812 237.138 20.16 236.058 20.856C234.978 21.552 234.438 22.5 234.438 23.7C234.438 24.396 234.618 25.056 234.978 25.68C235.338 26.28 235.866 26.784 236.562 27.192C237.258 27.576 238.074 27.768 239.01 27.768C240.186 27.768 241.278 27.54 242.286 27.084C243.318 26.628 244.11 26.04 244.662 25.32Z" fill="white"></path>
    <path d="M251.967 19.956C251.967 18.18 252.327 16.56 253.047 15.096C253.791 13.608 254.811 12.42 256.107 11.532C257.403 10.644 258.879 10.2 260.535 10.2C262.095 10.2 263.487 10.62 264.711 11.46C265.959 12.276 266.931 13.272 267.627 14.448V3H270.075V26.328C270.075 26.664 270.147 26.916 270.291 27.084C270.435 27.228 270.651 27.312 270.939 27.336V29.28C270.459 29.352 270.087 29.376 269.823 29.352C269.319 29.328 268.875 29.124 268.491 28.74C268.107 28.356 267.915 27.936 267.915 27.48V25.644C267.171 26.868 266.163 27.84 264.891 28.56C263.619 29.28 262.299 29.64 260.931 29.64C259.635 29.64 258.435 29.376 257.331 28.848C256.251 28.32 255.303 27.6 254.487 26.688C253.695 25.776 253.071 24.744 252.615 23.592C252.183 22.416 251.967 21.204 251.967 19.956ZM267.627 22.836V17.04C267.315 16.176 266.811 15.396 266.115 14.7C265.419 13.98 264.627 13.416 263.739 13.008C262.875 12.576 262.011 12.36 261.147 12.36C260.139 12.36 259.227 12.576 258.411 13.008C257.595 13.416 256.887 13.98 256.287 14.7C255.711 15.42 255.267 16.236 254.955 17.148C254.643 18.06 254.487 18.996 254.487 19.956C254.487 20.964 254.655 21.924 254.991 22.836C255.351 23.748 255.855 24.564 256.503 25.284C257.151 25.98 257.895 26.52 258.735 26.904C259.575 27.288 260.487 27.48 261.471 27.48C262.095 27.48 262.743 27.36 263.415 27.12C264.087 26.88 264.723 26.556 265.323 26.148C265.947 25.716 266.463 25.212 266.871 24.636C267.279 24.06 267.531 23.46 267.627 22.836Z" fill="white"></path>
    <path d="M274.11 23.88C274.11 22.704 274.446 21.696 275.118 20.856C275.79 19.992 276.714 19.332 277.89 18.876C279.09 18.396 280.47 18.156 282.03 18.156C282.942 18.156 283.89 18.228 284.874 18.372C285.858 18.516 286.734 18.732 287.502 19.02V17.436C287.502 15.852 287.034 14.592 286.098 13.656C285.162 12.72 283.866 12.252 282.21 12.252C281.202 12.252 280.206 12.444 279.222 12.828C278.262 13.188 277.254 13.728 276.198 14.448L275.262 12.72C276.486 11.88 277.686 11.256 278.862 10.848C280.038 10.416 281.238 10.2 282.462 10.2C284.766 10.2 286.59 10.86 287.934 12.18C289.278 13.5 289.95 15.324 289.95 17.652V26.328C289.95 26.664 290.022 26.916 290.166 27.084C290.31 27.228 290.538 27.312 290.85 27.336V29.28C290.586 29.304 290.358 29.328 290.166 29.352C289.974 29.376 289.83 29.376 289.734 29.352C289.134 29.328 288.678 29.136 288.366 28.776C288.054 28.416 287.886 28.032 287.862 27.624L287.826 26.256C286.986 27.336 285.894 28.176 284.55 28.776C283.206 29.352 281.838 29.64 280.446 29.64C279.246 29.64 278.154 29.388 277.17 28.884C276.21 28.356 275.454 27.66 274.902 26.796C274.374 25.908 274.11 24.936 274.11 23.88ZM286.674 25.32C286.938 24.984 287.142 24.66 287.286 24.348C287.43 24.036 287.502 23.76 287.502 23.52V20.784C286.686 20.472 285.834 20.232 284.946 20.064C284.082 19.896 283.206 19.812 282.318 19.812C280.566 19.812 279.15 20.16 278.07 20.856C276.99 21.552 276.45 22.5 276.45 23.7C276.45 24.396 276.63 25.056 276.99 25.68C277.35 26.28 277.878 26.784 278.574 27.192C279.27 27.576 280.086 27.768 281.022 27.768C282.198 27.768 283.29 27.54 284.298 27.084C285.33 26.628 286.122 26.04 286.674 25.32Z" fill="white"></path>
    <path d="M108.3 40.5325L104.948 51.28H103.643L100.92 43.0825C100.895 43.0025 100.87 42.9175 100.845 42.8275C100.825 42.7375 100.803 42.6425 100.778 42.5425C100.753 42.6425 100.728 42.7375 100.703 42.8275C100.678 42.9175 100.653 43.0025 100.628 43.0825L97.89 51.28H96.585L93.2325 40.5325H94.44C94.57 40.5325 94.6775 40.565 94.7625 40.63C94.8525 40.695 94.91 40.7775 94.935 40.8775L97.155 48.3475C97.19 48.4825 97.2225 48.6275 97.2525 48.7825C97.2875 48.9375 97.32 49.1025 97.35 49.2775C97.385 49.1025 97.42 48.9375 97.455 48.7825C97.495 48.6225 97.5375 48.4775 97.5825 48.3475L100.11 40.8775C100.14 40.7925 100.198 40.715 100.283 40.645C100.373 40.57 100.48 40.5325 100.605 40.5325H101.025C101.155 40.5325 101.26 40.565 101.34 40.63C101.42 40.695 101.48 40.7775 101.52 40.8775L104.04 48.3475C104.085 48.4775 104.125 48.6175 104.16 48.7675C104.2 48.9175 104.238 49.075 104.273 49.24C104.298 49.075 104.325 48.9175 104.355 48.7675C104.385 48.6175 104.418 48.4775 104.453 48.3475L106.68 40.8775C106.705 40.7875 106.76 40.7075 106.845 40.6375C106.935 40.5675 107.043 40.5325 107.168 40.5325H108.3Z" fill="white"></path>
    <path d="M110.936 43.6825V51.28H109.601V43.6825H110.936ZM111.221 41.2975C111.221 41.4275 111.194 41.55 111.139 41.665C111.089 41.775 111.019 41.875 110.929 41.965C110.844 42.05 110.741 42.1175 110.621 42.1675C110.506 42.2175 110.384 42.2425 110.254 42.2425C110.124 42.2425 110.001 42.2175 109.886 42.1675C109.776 42.1175 109.679 42.05 109.594 41.965C109.509 41.875 109.441 41.775 109.391 41.665C109.341 41.55 109.316 41.4275 109.316 41.2975C109.316 41.1675 109.341 41.045 109.391 40.93C109.441 40.81 109.509 40.7075 109.594 40.6225C109.679 40.5325 109.776 40.4625 109.886 40.4125C110.001 40.3625 110.124 40.3375 110.254 40.3375C110.384 40.3375 110.506 40.3625 110.621 40.4125C110.741 40.4625 110.844 40.5325 110.929 40.6225C111.019 40.7075 111.089 40.81 111.139 40.93C111.194 41.045 111.221 41.1675 111.221 41.2975Z" fill="white"></path>
    <path d="M114.39 44.785C114.555 44.6 114.73 44.4325 114.915 44.2825C115.1 44.1325 115.295 44.005 115.5 43.9C115.71 43.79 115.93 43.7075 116.16 43.6525C116.395 43.5925 116.647 43.5625 116.917 43.5625C117.332 43.5625 117.697 43.6325 118.012 43.7725C118.332 43.9075 118.597 44.1025 118.807 44.3575C119.022 44.6075 119.185 44.91 119.295 45.265C119.405 45.62 119.46 46.0125 119.46 46.4425V51.28H118.117V46.4425C118.117 45.8675 117.985 45.4225 117.72 45.1075C117.46 44.7875 117.062 44.6275 116.527 44.6275C116.132 44.6275 115.762 44.7225 115.417 44.9125C115.077 45.1025 114.762 45.36 114.472 45.685V51.28H113.13V43.6825H113.932C114.122 43.6825 114.24 43.775 114.285 43.96L114.39 44.785Z" fill="white"></path>
    <path d="M126.444 45.49C126.194 45.155 125.924 44.9225 125.634 44.7925C125.344 44.6575 125.019 44.59 124.659 44.59C123.954 44.59 123.412 44.8425 123.032 45.3475C122.652 45.8525 122.462 46.5725 122.462 47.5075C122.462 48.0025 122.504 48.4275 122.589 48.7825C122.674 49.1325 122.799 49.4225 122.964 49.6525C123.129 49.8775 123.332 50.0425 123.572 50.1475C123.812 50.2525 124.084 50.305 124.389 50.305C124.829 50.305 125.212 50.205 125.537 50.005C125.867 49.805 126.169 49.5225 126.444 49.1575V45.49ZM127.779 40.2325V51.28H126.984C126.794 51.28 126.674 51.1875 126.624 51.0025L126.504 50.08C126.179 50.47 125.809 50.785 125.394 51.025C124.979 51.265 124.499 51.385 123.954 51.385C123.519 51.385 123.124 51.3025 122.769 51.1375C122.414 50.9675 122.112 50.72 121.862 50.395C121.612 50.07 121.419 49.665 121.284 49.18C121.149 48.695 121.082 48.1375 121.082 47.5075C121.082 46.9475 121.157 46.4275 121.307 45.9475C121.457 45.4625 121.672 45.0425 121.952 44.6875C122.232 44.3325 122.574 44.055 122.979 43.855C123.389 43.65 123.849 43.5475 124.359 43.5475C124.824 43.5475 125.222 43.6275 125.552 43.7875C125.887 43.9425 126.184 44.16 126.444 44.44V40.2325H127.779Z" fill="white"></path>
    <path d="M129.888 51.28V43.6825H130.69C130.88 43.6825 130.998 43.775 131.043 43.96L131.14 44.74C131.42 44.395 131.735 44.1125 132.085 43.8925C132.435 43.6725 132.84 43.5625 133.3 43.5625C133.81 43.5625 134.223 43.705 134.538 43.99C134.858 44.275 135.088 44.66 135.228 45.145C135.338 44.87 135.478 44.6325 135.648 44.4325C135.823 44.2325 136.018 44.0675 136.233 43.9375C136.448 43.8075 136.675 43.7125 136.915 43.6525C137.16 43.5925 137.408 43.5625 137.658 43.5625C138.058 43.5625 138.413 43.6275 138.723 43.7575C139.038 43.8825 139.303 44.0675 139.518 44.3125C139.738 44.5575 139.905 44.86 140.02 45.22C140.135 45.575 140.193 45.9825 140.193 46.4425V51.28H138.85V46.4425C138.85 45.8475 138.72 45.3975 138.46 45.0925C138.2 44.7825 137.825 44.6275 137.335 44.6275C137.115 44.6275 136.905 44.6675 136.705 44.7475C136.51 44.8225 136.338 44.935 136.188 45.085C136.038 45.235 135.918 45.425 135.828 45.655C135.743 45.88 135.7 46.1425 135.7 46.4425V51.28H134.358V46.4425C134.358 45.8325 134.235 45.3775 133.99 45.0775C133.745 44.7775 133.388 44.6275 132.918 44.6275C132.588 44.6275 132.283 44.7175 132.003 44.8975C131.723 45.0725 131.465 45.3125 131.23 45.6175V51.28H129.888Z" fill="white"></path>
    <path d="M143.632 43.6825V51.28H142.297V43.6825H143.632ZM143.917 41.2975C143.917 41.4275 143.889 41.55 143.834 41.665C143.784 41.775 143.714 41.875 143.624 41.965C143.539 42.05 143.437 42.1175 143.317 42.1675C143.202 42.2175 143.079 42.2425 142.949 42.2425C142.819 42.2425 142.697 42.2175 142.582 42.1675C142.472 42.1175 142.374 42.05 142.289 41.965C142.204 41.875 142.137 41.775 142.087 41.665C142.037 41.55 142.012 41.4275 142.012 41.2975C142.012 41.1675 142.037 41.045 142.087 40.93C142.137 40.81 142.204 40.7075 142.289 40.6225C142.374 40.5325 142.472 40.4625 142.582 40.4125C142.697 40.3625 142.819 40.3375 142.949 40.3375C143.079 40.3375 143.202 40.3625 143.317 40.4125C143.437 40.4625 143.539 40.5325 143.624 40.6225C143.714 40.7075 143.784 40.81 143.834 40.93C143.889 41.045 143.917 41.1675 143.917 41.2975Z" fill="white"></path>
    <path d="M147.205 40.2325V51.28H145.87V40.2325H147.205Z" fill="white"></path>
    <path d="M150.75 40.2325V51.28H149.415V40.2325H150.75Z" fill="white"></path>
    <path d="M158.523 51.28H157.068V40.5325H158.523V51.28Z" fill="white"></path>
    <path d="M160.84 51.28V43.6825H161.642C161.832 43.6825 161.95 43.775 161.995 43.96L162.092 44.74C162.372 44.395 162.687 44.1125 163.037 43.8925C163.387 43.6725 163.792 43.5625 164.252 43.5625C164.762 43.5625 165.175 43.705 165.49 43.99C165.81 44.275 166.04 44.66 166.18 45.145C166.29 44.87 166.43 44.6325 166.6 44.4325C166.775 44.2325 166.97 44.0675 167.185 43.9375C167.4 43.8075 167.627 43.7125 167.867 43.6525C168.112 43.5925 168.36 43.5625 168.61 43.5625C169.01 43.5625 169.365 43.6275 169.675 43.7575C169.99 43.8825 170.255 44.0675 170.47 44.3125C170.69 44.5575 170.857 44.86 170.972 45.22C171.087 45.575 171.145 45.9825 171.145 46.4425V51.28H169.802V46.4425C169.802 45.8475 169.672 45.3975 169.412 45.0925C169.152 44.7825 168.777 44.6275 168.287 44.6275C168.067 44.6275 167.857 44.6675 167.657 44.7475C167.462 44.8225 167.29 44.935 167.14 45.085C166.99 45.235 166.87 45.425 166.78 45.655C166.695 45.88 166.652 46.1425 166.652 46.4425V51.28H165.31V46.4425C165.31 45.8325 165.187 45.3775 164.942 45.0775C164.697 44.7775 164.34 44.6275 163.87 44.6275C163.54 44.6275 163.235 44.7175 162.955 44.8975C162.675 45.0725 162.417 45.3125 162.182 45.6175V51.28H160.84Z" fill="white"></path>
    <path d="M173.174 51.28V43.6825H173.976C174.166 43.6825 174.284 43.775 174.329 43.96L174.426 44.74C174.706 44.395 175.021 44.1125 175.371 43.8925C175.721 43.6725 176.126 43.5625 176.586 43.5625C177.096 43.5625 177.509 43.705 177.824 43.99C178.144 44.275 178.374 44.66 178.514 45.145C178.624 44.87 178.764 44.6325 178.934 44.4325C179.109 44.2325 179.304 44.0675 179.519 43.9375C179.734 43.8075 179.961 43.7125 180.201 43.6525C180.446 43.5925 180.694 43.5625 180.944 43.5625C181.344 43.5625 181.699 43.6275 182.009 43.7575C182.324 43.8825 182.589 44.0675 182.804 44.3125C183.024 44.5575 183.191 44.86 183.306 45.22C183.421 45.575 183.479 45.9825 183.479 46.4425V51.28H182.136V46.4425C182.136 45.8475 182.006 45.3975 181.746 45.0925C181.486 44.7825 181.111 44.6275 180.621 44.6275C180.401 44.6275 180.191 44.6675 179.991 44.7475C179.796 44.8225 179.624 44.935 179.474 45.085C179.324 45.235 179.204 45.425 179.114 45.655C179.029 45.88 178.986 46.1425 178.986 46.4425V51.28H177.644V46.4425C177.644 45.8325 177.521 45.3775 177.276 45.0775C177.031 44.7775 176.674 44.6275 176.204 44.6275C175.874 44.6275 175.569 44.7175 175.289 44.8975C175.009 45.0725 174.751 45.3125 174.516 45.6175V51.28H173.174Z" fill="white"></path>
    <path d="M186.918 43.6825V51.28H185.583V43.6825H186.918ZM187.203 41.2975C187.203 41.4275 187.175 41.55 187.12 41.665C187.07 41.775 187 41.875 186.91 41.965C186.825 42.05 186.723 42.1175 186.603 42.1675C186.488 42.2175 186.365 42.2425 186.235 42.2425C186.105 42.2425 185.983 42.2175 185.868 42.1675C185.758 42.1175 185.66 42.05 185.575 41.965C185.49 41.875 185.423 41.775 185.373 41.665C185.323 41.55 185.298 41.4275 185.298 41.2975C185.298 41.1675 185.323 41.045 185.373 40.93C185.423 40.81 185.49 40.7075 185.575 40.6225C185.66 40.5325 185.758 40.4625 185.868 40.4125C185.983 40.3625 186.105 40.3375 186.235 40.3375C186.365 40.3375 186.488 40.3625 186.603 40.4125C186.723 40.4625 186.825 40.5325 186.91 40.6225C187 40.7075 187.07 40.81 187.12 40.93C187.175 41.045 187.203 41.1675 187.203 41.2975Z" fill="white"></path>
    <path d="M191.759 47.5675C192.029 47.5675 192.266 47.53 192.471 47.455C192.676 47.38 192.849 47.275 192.989 47.14C193.129 47.005 193.234 46.845 193.304 46.66C193.374 46.47 193.409 46.2625 193.409 46.0375C193.409 45.5725 193.266 45.2025 192.981 44.9275C192.701 44.6525 192.294 44.515 191.759 44.515C191.219 44.515 190.806 44.6525 190.521 44.9275C190.241 45.2025 190.101 45.5725 190.101 46.0375C190.101 46.2625 190.136 46.47 190.206 46.66C190.281 46.845 190.389 47.005 190.529 47.14C190.669 47.275 190.841 47.38 191.046 47.455C191.251 47.53 191.489 47.5675 191.759 47.5675ZM194.166 51.6925C194.166 51.5075 194.114 51.3575 194.009 51.2425C193.904 51.1275 193.761 51.0375 193.581 50.9725C193.406 50.9075 193.201 50.8625 192.966 50.8375C192.731 50.8075 192.481 50.785 192.216 50.77C191.956 50.755 191.691 50.74 191.421 50.725C191.151 50.71 190.891 50.685 190.641 50.65C190.361 50.78 190.131 50.945 189.951 51.145C189.776 51.34 189.689 51.57 189.689 51.835C189.689 52.005 189.731 52.1625 189.816 52.3075C189.906 52.4575 190.041 52.585 190.221 52.69C190.401 52.8 190.626 52.885 190.896 52.945C191.171 53.01 191.494 53.0425 191.864 53.0425C192.224 53.0425 192.546 53.01 192.831 52.945C193.116 52.88 193.356 52.7875 193.551 52.6675C193.751 52.5475 193.904 52.405 194.009 52.24C194.114 52.075 194.166 51.8925 194.166 51.6925ZM195.524 43.9825V44.4775C195.524 44.6425 195.419 44.7475 195.209 44.7925L194.346 44.905C194.516 45.235 194.601 45.6 194.601 46C194.601 46.37 194.529 46.7075 194.384 47.0125C194.244 47.3125 194.049 47.57 193.799 47.785C193.549 48 193.249 48.165 192.899 48.28C192.549 48.395 192.169 48.4525 191.759 48.4525C191.404 48.4525 191.069 48.41 190.754 48.325C190.594 48.425 190.471 48.5325 190.386 48.6475C190.301 48.7575 190.259 48.87 190.259 48.985C190.259 49.165 190.331 49.3025 190.476 49.3975C190.626 49.4875 190.821 49.5525 191.061 49.5925C191.301 49.6325 191.574 49.6575 191.879 49.6675C192.189 49.6775 192.504 49.695 192.824 49.72C193.149 49.74 193.464 49.7775 193.769 49.8325C194.079 49.8875 194.354 49.9775 194.594 50.1025C194.834 50.2275 195.026 50.4 195.171 50.62C195.321 50.84 195.396 51.125 195.396 51.475C195.396 51.8 195.314 52.115 195.149 52.42C194.989 52.725 194.756 52.995 194.451 53.23C194.146 53.47 193.771 53.66 193.326 53.8C192.886 53.945 192.389 54.0175 191.834 54.0175C191.279 54.0175 190.794 53.9625 190.379 53.8525C189.964 53.7425 189.619 53.595 189.344 53.41C189.069 53.225 188.861 53.01 188.721 52.765C188.586 52.525 188.519 52.2725 188.519 52.0075C188.519 51.6325 188.636 51.315 188.871 51.055C189.106 50.795 189.429 50.5875 189.839 50.4325C189.614 50.3325 189.434 50.2 189.299 50.035C189.169 49.865 189.104 49.6375 189.104 49.3525C189.104 49.2425 189.124 49.13 189.164 49.015C189.204 48.895 189.264 48.7775 189.344 48.6625C189.429 48.5425 189.531 48.43 189.651 48.325C189.771 48.22 189.911 48.1275 190.071 48.0475C189.696 47.8375 189.404 47.56 189.194 47.215C188.984 46.865 188.879 46.46 188.879 46C188.879 45.63 188.949 45.295 189.089 44.995C189.234 44.69 189.434 44.4325 189.689 44.2225C189.944 44.0075 190.246 43.8425 190.596 43.7275C190.951 43.6125 191.339 43.555 191.759 43.555C192.089 43.555 192.396 43.5925 192.681 43.6675C192.966 43.7375 193.226 43.8425 193.461 43.9825H195.524Z" fill="white"></path>
    <path d="M198.172 45.205C198.412 44.685 198.707 44.28 199.057 43.99C199.407 43.695 199.834 43.5475 200.339 43.5475C200.499 43.5475 200.652 43.565 200.797 43.6C200.947 43.635 201.079 43.69 201.194 43.765L201.097 44.7625C201.067 44.8875 200.992 44.95 200.872 44.95C200.802 44.95 200.699 44.935 200.564 44.905C200.429 44.875 200.277 44.86 200.107 44.86C199.867 44.86 199.652 44.895 199.462 44.965C199.277 45.035 199.109 45.14 198.959 45.28C198.814 45.415 198.682 45.585 198.562 45.79C198.447 45.99 198.342 46.22 198.247 46.48V51.28H196.904V43.6825H197.669C197.814 43.6825 197.914 43.71 197.969 43.765C198.024 43.82 198.062 43.915 198.082 44.05L198.172 45.205Z" fill="white"></path>
    <path d="M206.368 47.86C205.753 47.88 205.228 47.93 204.793 48.01C204.363 48.085 204.011 48.185 203.736 48.31C203.466 48.435 203.268 48.5825 203.143 48.7525C203.023 48.9225 202.963 49.1125 202.963 49.3225C202.963 49.5225 202.996 49.695 203.061 49.84C203.126 49.985 203.213 50.105 203.323 50.2C203.438 50.29 203.571 50.3575 203.721 50.4025C203.876 50.4425 204.041 50.4625 204.216 50.4625C204.451 50.4625 204.666 50.44 204.861 50.395C205.056 50.345 205.238 50.275 205.408 50.185C205.583 50.095 205.748 49.9875 205.903 49.8625C206.063 49.7375 206.218 49.595 206.368 49.435V47.86ZM202.056 44.755C202.476 44.35 202.928 44.0475 203.413 43.8475C203.898 43.6475 204.436 43.5475 205.026 43.5475C205.451 43.5475 205.828 43.6175 206.158 43.7575C206.488 43.8975 206.766 44.0925 206.991 44.3425C207.216 44.5925 207.386 44.895 207.501 45.25C207.616 45.605 207.673 45.995 207.673 46.42V51.28H207.081C206.951 51.28 206.851 51.26 206.781 51.22C206.711 51.175 206.656 51.09 206.616 50.965L206.466 50.245C206.266 50.43 206.071 50.595 205.881 50.74C205.691 50.88 205.491 51 205.281 51.1C205.071 51.195 204.846 51.2675 204.606 51.3175C204.371 51.3725 204.108 51.4 203.818 51.4C203.523 51.4 203.246 51.36 202.986 51.28C202.726 51.195 202.498 51.07 202.303 50.905C202.113 50.74 201.961 50.5325 201.846 50.2825C201.736 50.0275 201.681 49.7275 201.681 49.3825C201.681 49.0825 201.763 48.795 201.928 48.52C202.093 48.24 202.361 47.9925 202.731 47.7775C203.101 47.5625 203.583 47.3875 204.178 47.2525C204.773 47.1125 205.503 47.0325 206.368 47.0125V46.42C206.368 45.83 206.241 45.385 205.986 45.085C205.731 44.78 205.358 44.6275 204.868 44.6275C204.538 44.6275 204.261 44.67 204.036 44.755C203.816 44.835 203.623 44.9275 203.458 45.0325C203.298 45.1325 203.158 45.225 203.038 45.31C202.923 45.39 202.808 45.43 202.693 45.43C202.603 45.43 202.526 45.4075 202.461 45.3625C202.396 45.3125 202.341 45.2525 202.296 45.1825L202.056 44.755Z" fill="white"></path>
    <path d="M216.654 51.28H215.319V44.8H211.404V49.36C211.404 49.68 211.482 49.9175 211.637 50.0725C211.792 50.2275 211.992 50.305 212.237 50.305C212.377 50.305 212.497 50.2875 212.597 50.2525C212.702 50.2125 212.792 50.17 212.867 50.125C212.942 50.08 213.004 50.04 213.054 50.005C213.109 49.965 213.157 49.945 213.197 49.945C213.267 49.945 213.329 49.9875 213.384 50.0725L213.774 50.71C213.544 50.925 213.267 51.095 212.942 51.22C212.617 51.34 212.282 51.4 211.937 51.4C211.337 51.4 210.874 51.2325 210.549 50.8975C210.229 50.5625 210.069 50.08 210.069 49.45V44.8H209.154C209.074 44.8 209.007 44.7775 208.952 44.7325C208.897 44.6825 208.869 44.6075 208.869 44.5075V43.975L210.114 43.81L210.422 41.47C210.437 41.395 210.469 41.335 210.519 41.29C210.574 41.24 210.644 41.215 210.729 41.215H211.404V43.8325H216.654V51.28ZM216.984 41.245C216.984 41.375 216.957 41.4975 216.902 41.6125C216.852 41.7225 216.782 41.82 216.692 41.905C216.607 41.99 216.507 42.0575 216.392 42.1075C216.277 42.1575 216.154 42.1825 216.024 42.1825C215.894 42.1825 215.772 42.1575 215.657 42.1075C215.547 42.0575 215.449 41.99 215.364 41.905C215.279 41.82 215.212 41.7225 215.162 41.6125C215.112 41.4975 215.087 41.375 215.087 41.245C215.087 41.115 215.112 40.9925 215.162 40.8775C215.212 40.7575 215.279 40.655 215.364 40.57C215.449 40.48 215.547 40.41 215.657 40.36C215.772 40.31 215.894 40.285 216.024 40.285C216.154 40.285 216.277 40.31 216.392 40.36C216.507 40.41 216.607 40.48 216.692 40.57C216.782 40.655 216.852 40.7575 216.902 40.8775C216.957 40.9925 216.984 41.115 216.984 41.245Z" fill="white"></path>
    <path d="M222.05 43.5625C222.605 43.5625 223.105 43.655 223.55 43.84C223.995 44.025 224.375 44.2875 224.69 44.6275C225.005 44.9675 225.245 45.38 225.41 45.865C225.58 46.345 225.665 46.8825 225.665 47.4775C225.665 48.0775 225.58 48.6175 225.41 49.0975C225.245 49.5775 225.005 49.9875 224.69 50.3275C224.375 50.6675 223.995 50.93 223.55 51.115C223.105 51.295 222.605 51.385 222.05 51.385C221.49 51.385 220.985 51.295 220.535 51.115C220.09 50.93 219.71 50.6675 219.395 50.3275C219.08 49.9875 218.838 49.5775 218.668 49.0975C218.503 48.6175 218.42 48.0775 218.42 47.4775C218.42 46.8825 218.503 46.345 218.668 45.865C218.838 45.38 219.08 44.9675 219.395 44.6275C219.71 44.2875 220.09 44.025 220.535 43.84C220.985 43.655 221.49 43.5625 222.05 43.5625ZM222.05 50.3425C222.8 50.3425 223.36 50.0925 223.73 49.5925C224.1 49.0875 224.285 48.385 224.285 47.485C224.285 46.58 224.1 45.875 223.73 45.37C223.36 44.865 222.8 44.6125 222.05 44.6125C221.67 44.6125 221.338 44.6775 221.053 44.8075C220.773 44.9375 220.538 45.125 220.348 45.37C220.163 45.615 220.023 45.9175 219.928 46.2775C219.838 46.6325 219.793 47.035 219.793 47.485C219.793 48.385 219.978 49.0875 220.348 49.5925C220.723 50.0925 221.29 50.3425 222.05 50.3425Z" fill="white"></path>
    <path d="M228.618 44.785C228.783 44.6 228.958 44.4325 229.143 44.2825C229.328 44.1325 229.523 44.005 229.728 43.9C229.938 43.79 230.158 43.7075 230.388 43.6525C230.623 43.5925 230.876 43.5625 231.146 43.5625C231.561 43.5625 231.926 43.6325 232.241 43.7725C232.561 43.9075 232.826 44.1025 233.036 44.3575C233.251 44.6075 233.413 44.91 233.523 45.265C233.633 45.62 233.688 46.0125 233.688 46.4425V51.28H232.346V46.4425C232.346 45.8675 232.213 45.4225 231.948 45.1075C231.688 44.7875 231.291 44.6275 230.756 44.6275C230.361 44.6275 229.991 44.7225 229.646 44.9125C229.306 45.1025 228.991 45.36 228.701 45.685V51.28H227.358V43.6825H228.161C228.351 43.6825 228.468 43.775 228.513 43.96L228.618 44.785Z" fill="white"></path>
    <path d="M245.373 42.2125C245.328 42.2875 245.278 42.345 245.223 42.385C245.173 42.42 245.11 42.4375 245.035 42.4375C244.95 42.4375 244.85 42.395 244.735 42.31C244.62 42.225 244.475 42.1325 244.3 42.0325C244.13 41.9275 243.923 41.8325 243.678 41.7475C243.438 41.6625 243.145 41.62 242.8 41.62C242.475 41.62 242.188 41.665 241.938 41.755C241.693 41.84 241.485 41.9575 241.315 42.1075C241.15 42.2575 241.025 42.435 240.94 42.64C240.855 42.84 240.813 43.0575 240.813 43.2925C240.813 43.5925 240.885 43.8425 241.03 44.0425C241.18 44.2375 241.375 44.405 241.615 44.545C241.86 44.685 242.135 44.8075 242.44 44.9125C242.75 45.0125 243.065 45.1175 243.385 45.2275C243.71 45.3375 244.025 45.4625 244.33 45.6025C244.64 45.7375 244.915 45.91 245.155 46.12C245.4 46.33 245.595 46.5875 245.74 46.8925C245.89 47.1975 245.965 47.5725 245.965 48.0175C245.965 48.4875 245.885 48.93 245.725 49.345C245.565 49.755 245.33 50.1125 245.02 50.4175C244.715 50.7225 244.338 50.9625 243.888 51.1375C243.443 51.3125 242.935 51.4 242.365 51.4C241.665 51.4 241.03 51.275 240.46 51.025C239.89 50.77 239.403 50.4275 238.998 49.9975L239.418 49.3075C239.458 49.2525 239.505 49.2075 239.56 49.1725C239.62 49.1325 239.685 49.1125 239.755 49.1125C239.82 49.1125 239.893 49.14 239.973 49.195C240.058 49.245 240.153 49.31 240.258 49.39C240.363 49.47 240.483 49.5575 240.618 49.6525C240.753 49.7475 240.905 49.835 241.075 49.915C241.25 49.995 241.448 50.0625 241.668 50.1175C241.888 50.1675 242.135 50.1925 242.41 50.1925C242.755 50.1925 243.063 50.145 243.333 50.05C243.603 49.955 243.83 49.8225 244.015 49.6525C244.205 49.4775 244.35 49.27 244.45 49.03C244.55 48.79 244.6 48.5225 244.6 48.2275C244.6 47.9025 244.525 47.6375 244.375 47.4325C244.23 47.2225 244.038 47.0475 243.798 46.9075C243.558 46.7675 243.283 46.65 242.973 46.555C242.663 46.455 242.348 46.355 242.028 46.255C241.708 46.15 241.393 46.03 241.083 45.895C240.773 45.76 240.498 45.585 240.258 45.37C240.018 45.155 239.823 44.8875 239.673 44.5675C239.528 44.2425 239.455 43.8425 239.455 43.3675C239.455 42.9875 239.528 42.62 239.673 42.265C239.823 41.91 240.038 41.595 240.318 41.32C240.603 41.045 240.95 40.825 241.36 40.66C241.775 40.495 242.25 40.4125 242.785 40.4125C243.385 40.4125 243.93 40.5075 244.42 40.6975C244.915 40.8875 245.35 41.1625 245.725 41.5225L245.373 42.2125Z" fill="white"></path>
    <path d="M252.746 46.6525C252.746 46.3425 252.701 46.06 252.611 45.805C252.526 45.545 252.399 45.3225 252.229 45.1375C252.064 44.9475 251.861 44.8025 251.621 44.7025C251.381 44.5975 251.109 44.545 250.804 44.545C250.164 44.545 249.656 44.7325 249.281 45.1075C248.911 45.4775 248.681 45.9925 248.591 46.6525H252.746ZM253.826 50.215C253.661 50.415 253.464 50.59 253.234 50.74C253.004 50.885 252.756 51.005 252.491 51.1C252.231 51.195 251.961 51.265 251.681 51.31C251.401 51.36 251.124 51.385 250.849 51.385C250.324 51.385 249.839 51.2975 249.394 51.1225C248.954 50.9425 248.571 50.6825 248.246 50.3425C247.926 49.9975 247.676 49.5725 247.496 49.0675C247.316 48.5625 247.226 47.9825 247.226 47.3275C247.226 46.7975 247.306 46.3025 247.466 45.8425C247.631 45.3825 247.866 44.985 248.171 44.65C248.476 44.31 248.849 44.045 249.289 43.855C249.729 43.66 250.224 43.5625 250.774 43.5625C251.229 43.5625 251.649 43.64 252.034 43.795C252.424 43.945 252.759 44.165 253.039 44.455C253.324 44.74 253.546 45.095 253.706 45.52C253.866 45.94 253.946 46.42 253.946 46.96C253.946 47.17 253.924 47.31 253.879 47.38C253.834 47.45 253.749 47.485 253.624 47.485H248.546C248.561 47.965 248.626 48.3825 248.741 48.7375C248.861 49.0925 249.026 49.39 249.236 49.63C249.446 49.865 249.696 50.0425 249.986 50.1625C250.276 50.2775 250.601 50.335 250.961 50.335C251.296 50.335 251.584 50.2975 251.824 50.2225C252.069 50.1425 252.279 50.0575 252.454 49.9675C252.629 49.8775 252.774 49.795 252.889 49.72C253.009 49.64 253.111 49.6 253.196 49.6C253.306 49.6 253.391 49.6425 253.451 49.7275L253.826 50.215Z" fill="white"></path>
    <path d="M256.853 45.205C257.093 44.685 257.388 44.28 257.738 43.99C258.088 43.695 258.516 43.5475 259.021 43.5475C259.181 43.5475 259.333 43.565 259.478 43.6C259.628 43.635 259.761 43.69 259.876 43.765L259.778 44.7625C259.748 44.8875 259.673 44.95 259.553 44.95C259.483 44.95 259.381 44.935 259.246 44.905C259.111 44.875 258.958 44.86 258.788 44.86C258.548 44.86 258.333 44.895 258.143 44.965C257.958 45.035 257.791 45.14 257.641 45.28C257.496 45.415 257.363 45.585 257.243 45.79C257.128 45.99 257.023 46.22 256.928 46.48V51.28H255.586V43.6825H256.351C256.496 43.6825 256.596 43.71 256.651 43.765C256.706 43.82 256.743 43.915 256.763 44.05L256.853 45.205Z" fill="white"></path>
    <path d="M267.56 43.6825L264.462 51.28H263.262L260.165 43.6825H261.252C261.362 43.6825 261.452 43.71 261.522 43.765C261.592 43.82 261.64 43.885 261.665 43.96L263.592 48.85C263.652 49.035 263.705 49.215 263.75 49.39C263.795 49.565 263.837 49.74 263.877 49.915C263.917 49.74 263.96 49.565 264.005 49.39C264.05 49.215 264.105 49.035 264.17 48.85L266.12 43.96C266.15 43.88 266.2 43.815 266.27 43.765C266.34 43.71 266.422 43.6825 266.517 43.6825H267.56Z" fill="white"></path>
    <path d="M270.194 43.6825V51.28H268.859V43.6825H270.194ZM270.479 41.2975C270.479 41.4275 270.452 41.55 270.397 41.665C270.347 41.775 270.277 41.875 270.187 41.965C270.102 42.05 269.999 42.1175 269.879 42.1675C269.764 42.2175 269.642 42.2425 269.512 42.2425C269.382 42.2425 269.259 42.2175 269.144 42.1675C269.034 42.1175 268.937 42.05 268.852 41.965C268.767 41.875 268.699 41.775 268.649 41.665C268.599 41.55 268.574 41.4275 268.574 41.2975C268.574 41.1675 268.599 41.045 268.649 40.93C268.699 40.81 268.767 40.7075 268.852 40.6225C268.937 40.5325 269.034 40.4625 269.144 40.4125C269.259 40.3625 269.382 40.3375 269.512 40.3375C269.642 40.3375 269.764 40.3625 269.879 40.4125C269.999 40.4625 270.102 40.5325 270.187 40.6225C270.277 40.7075 270.347 40.81 270.397 40.93C270.452 41.045 270.479 41.1675 270.479 41.2975Z" fill="white"></path>
    <path d="M277.675 45.0325C277.635 45.0875 277.595 45.13 277.555 45.16C277.515 45.19 277.46 45.205 277.39 45.205C277.315 45.205 277.233 45.175 277.143 45.115C277.053 45.05 276.94 44.98 276.805 44.905C276.675 44.83 276.513 44.7625 276.318 44.7025C276.128 44.6375 275.893 44.605 275.613 44.605C275.238 44.605 274.908 44.6725 274.623 44.8075C274.338 44.9375 274.098 45.1275 273.903 45.3775C273.713 45.6275 273.568 45.93 273.468 46.285C273.373 46.64 273.325 47.0375 273.325 47.4775C273.325 47.9375 273.378 48.3475 273.483 48.7075C273.588 49.0625 273.735 49.3625 273.925 49.6075C274.12 49.8475 274.353 50.0325 274.623 50.1625C274.898 50.2875 275.205 50.35 275.545 50.35C275.87 50.35 276.138 50.3125 276.348 50.2375C276.558 50.1575 276.73 50.07 276.865 49.975C277.005 49.88 277.12 49.795 277.21 49.72C277.305 49.64 277.398 49.6 277.488 49.6C277.598 49.6 277.683 49.6425 277.743 49.7275L278.118 50.215C277.953 50.42 277.765 50.595 277.555 50.74C277.345 50.885 277.118 51.0075 276.873 51.1075C276.633 51.2025 276.38 51.2725 276.115 51.3175C275.85 51.3625 275.58 51.385 275.305 51.385C274.83 51.385 274.388 51.2975 273.978 51.1225C273.573 50.9475 273.22 50.695 272.92 50.365C272.62 50.03 272.385 49.62 272.215 49.135C272.045 48.65 271.96 48.0975 271.96 47.4775C271.96 46.9125 272.038 46.39 272.193 45.91C272.353 45.43 272.583 45.0175 272.883 44.6725C273.188 44.3225 273.56 44.05 274 43.855C274.445 43.66 274.955 43.5625 275.53 43.5625C276.065 43.5625 276.535 43.65 276.94 43.825C277.35 43.995 277.713 44.2375 278.028 44.5525L277.675 45.0325Z" fill="white"></path>
    <path d="M284.504 46.6525C284.504 46.3425 284.459 46.06 284.369 45.805C284.284 45.545 284.156 45.3225 283.986 45.1375C283.821 44.9475 283.619 44.8025 283.379 44.7025C283.139 44.5975 282.866 44.545 282.561 44.545C281.921 44.545 281.414 44.7325 281.039 45.1075C280.669 45.4775 280.439 45.9925 280.349 46.6525H284.504ZM285.584 50.215C285.419 50.415 285.221 50.59 284.991 50.74C284.761 50.885 284.514 51.005 284.249 51.1C283.989 51.195 283.719 51.265 283.439 51.31C283.159 51.36 282.881 51.385 282.606 51.385C282.081 51.385 281.596 51.2975 281.151 51.1225C280.711 50.9425 280.329 50.6825 280.004 50.3425C279.684 49.9975 279.434 49.5725 279.254 49.0675C279.074 48.5625 278.984 47.9825 278.984 47.3275C278.984 46.7975 279.064 46.3025 279.224 45.8425C279.389 45.3825 279.624 44.985 279.929 44.65C280.234 44.31 280.606 44.045 281.046 43.855C281.486 43.66 281.981 43.5625 282.531 43.5625C282.986 43.5625 283.406 43.64 283.791 43.795C284.181 43.945 284.516 44.165 284.796 44.455C285.081 44.74 285.304 45.095 285.464 45.52C285.624 45.94 285.704 46.42 285.704 46.96C285.704 47.17 285.681 47.31 285.636 47.38C285.591 47.45 285.506 47.485 285.381 47.485H280.304C280.319 47.965 280.384 48.3825 280.499 48.7375C280.619 49.0925 280.784 49.39 280.994 49.63C281.204 49.865 281.454 50.0425 281.744 50.1625C282.034 50.2775 282.359 50.335 282.719 50.335C283.054 50.335 283.341 50.2975 283.581 50.2225C283.826 50.1425 284.036 50.0575 284.211 49.9675C284.386 49.8775 284.531 49.795 284.646 49.72C284.766 49.64 284.869 49.6 284.954 49.6C285.064 49.6 285.149 49.6425 285.209 49.7275L285.584 50.215Z" fill="white"></path>
    <path d="M291.769 44.935C291.709 45.045 291.616 45.1 291.491 45.1C291.416 45.1 291.331 45.0725 291.236 45.0175C291.141 44.9625 291.024 44.9025 290.884 44.8375C290.749 44.7675 290.586 44.705 290.396 44.65C290.206 44.59 289.981 44.56 289.721 44.56C289.496 44.56 289.294 44.59 289.114 44.65C288.934 44.705 288.779 44.7825 288.649 44.8825C288.524 44.9825 288.426 45.1 288.356 45.235C288.291 45.365 288.259 45.5075 288.259 45.6625C288.259 45.8575 288.314 46.02 288.424 46.15C288.539 46.28 288.689 46.3925 288.874 46.4875C289.059 46.5825 289.269 46.6675 289.504 46.7425C289.739 46.8125 289.979 46.89 290.224 46.975C290.474 47.055 290.716 47.145 290.951 47.245C291.186 47.345 291.396 47.47 291.581 47.62C291.766 47.77 291.914 47.955 292.024 48.175C292.139 48.39 292.196 48.65 292.196 48.955C292.196 49.305 292.134 49.63 292.009 49.93C291.884 50.225 291.699 50.4825 291.454 50.7025C291.209 50.9175 290.909 51.0875 290.554 51.2125C290.199 51.3375 289.789 51.4 289.324 51.4C288.794 51.4 288.314 51.315 287.884 51.145C287.454 50.97 287.089 50.7475 286.789 50.4775L287.104 49.9675C287.144 49.9025 287.191 49.8525 287.246 49.8175C287.301 49.7825 287.371 49.765 287.456 49.765C287.546 49.765 287.641 49.8 287.741 49.87C287.841 49.94 287.961 50.0175 288.101 50.1025C288.246 50.1875 288.421 50.265 288.626 50.335C288.831 50.405 289.086 50.44 289.391 50.44C289.651 50.44 289.879 50.4075 290.074 50.3425C290.269 50.2725 290.431 50.18 290.561 50.065C290.691 49.95 290.786 49.8175 290.846 49.6675C290.911 49.5175 290.944 49.3575 290.944 49.1875C290.944 48.9775 290.886 48.805 290.771 48.67C290.661 48.53 290.514 48.4125 290.329 48.3175C290.144 48.2175 289.931 48.1325 289.691 48.0625C289.456 47.9875 289.214 47.91 288.964 47.83C288.719 47.75 288.476 47.66 288.236 47.56C288.001 47.455 287.791 47.325 287.606 47.17C287.421 47.015 287.271 46.825 287.156 46.6C287.046 46.37 286.991 46.0925 286.991 45.7675C286.991 45.4775 287.051 45.2 287.171 44.935C287.291 44.665 287.466 44.43 287.696 44.23C287.926 44.025 288.209 43.8625 288.544 43.7425C288.879 43.6225 289.261 43.5625 289.691 43.5625C290.191 43.5625 290.639 43.6425 291.034 43.8025C291.434 43.9575 291.779 44.1725 292.069 44.4475L291.769 44.935Z" fill="white"></path>
    <g clip-path="url(#clip1_17_1884)">
      <path d="M32.7669 15.7946L25.4038 12.6012L30.8611 40.3929L17.6943 32.1935L18.8204 38.5804L6 41.1696L16.2217 48.3333C16.7068 48.9548 16.4238 49.2252 16.2217 49.2827L12.8433 52.9077L26.3567 52.4762L21.9389 58C26.0275 56.55 34.4994 56.0149 38.2242 55.9286L39.9567 0L33.6331 15.4494C33.2173 16.0018 32.8824 15.9097 32.7669 15.7946Z" fill="white"></path>
      <path d="M47.2331 15.7946L54.5962 12.6012L49.1389 40.3929L62.3057 32.1935L61.1796 38.5804L74 41.1696L63.7783 48.3333C63.2932 48.9548 63.5762 49.2252 63.7783 49.2827L67.1567 52.9077L53.6433 52.4762L58.0611 58C53.9725 56.55 45.5006 56.0149 41.7758 55.9286L39.9567 0L46.3669 15.4494C46.7827 16.0018 47.1176 15.9097 47.2331 15.7946Z" fill="white"></path>
      <path d="M39.9567 0L40.8229 16.0536L39.9567 8.28571L38.9172 16.0536L39.9567 0Z" fill="white"></path>
      <path d="M38.2242 43.8452H42.0357V47.4702H38.2242V43.8452Z" fill="white"></path>
      <path d="M38.2242 32.4524H42.0357V36.0774H38.2242V32.4524Z" fill="white"></path>
      <path d="M38.2242 22.7857H42.0357V26.4107H38.2242V22.7857Z" fill="white"></path>
      <path d="M0.306386 30.75C-1.07581 34.4833 2.55245 37.8056 4.53935 39L9.54982 37.8333C8.85872 37.4333 3.09957 32.9444 0.306386 30.75Z" fill="white"></path>
      <path d="M0.306386 21C-0.384725 27.8 6.81422 34.8889 10.5001 37.5833L15.3377 36.5833L15.0786 34.6667L0.306386 21Z" fill="white"></path>
      <path d="M8.68595 21C7.44197 26.4 12.6022 31.3611 15.3377 33.1667L14.3875 27.3333L27 34L8.68595 21Z" fill="white"></path>
      <path d="M79.6936 30.75C81.0758 34.4833 77.4476 37.8056 75.4606 39L70.4502 37.8333C71.1413 37.4333 76.9004 32.9444 79.6936 30.75Z" fill="white"></path>
      <path d="M79.6936 21C80.3847 27.8 73.1858 34.8889 69.4999 37.5833L64.6623 36.5833L64.9214 34.6667L79.6936 21Z" fill="white"></path>
      <path d="M71.3141 21C72.558 26.4 67.3978 31.3611 64.6623 33.1667L65.6125 27.3333L53 34L71.3141 21Z" fill="white"></path>
    </g>
  </g>
  <defs>
    <clipPath id="clip0_17_1884">
      <rect width="293" height="58" fill="white"></rect>
    </clipPath>
    <clipPath id="clip1_17_1884">
      <rect width="80" height="58" fill="white"></rect>
    </clipPath>
  </defs>
</svg>
